<?xml version="1.0" encoding="UTF-8"?>
<svg id="Layer_2" data-name="Layer 2" xmlns="http://www.w3.org/2000/svg" viewBox="0 0 1920 230.27">
  <defs>
    <style>
      .cls-1 {
        fill: #ffd674;
        stroke-width: 0px;
      }
    </style>
  </defs>
  <g id="Layer_1-2" data-name="Layer 1">
    <path class="cls-1" d="m1844.91.64c-13.74-1.31-27.4-.47-41.09,1.18-32.63,4.75-64.79,12.2-97.68,15.33-15.55,1.48-31.04,1.59-46.58-.15-16.21-1.81-32.27-4.6-48.4-6.91-11.87-1.44-23.8-2.27-35.73-1.48-3.78.92-7.49,2.05-11.14,3.4-8.9,4.19-17.32,9.27-25.76,14.32-12.11,7.25-24.34,13.59-37.54,18.68-11.82,4.56-24.38,6.13-36.9,7.53-10.57,1.19-21.23,1.44-31.85,1.1-24.1-.79-48.19-4.38-71.85-8.83-41.86-7.86-82.84-20.02-124.81-27.27-29.65-3.34-59.34-3.22-88.98.21-22.44,3.67-43.92,12.26-66.05,17.29-7.77,1.76-15.96,3.3-24.28,4.26-3.66,1.36-7.54,2.1-11.45,2.08-11.84-.05-23.56-.94-35.2-2.36-.53.03-1.06.06-1.58.06-3.8,0-7.4-.62-10.74-1.74-5.46-.82-10.91-1.74-16.35-2.72-34.11-.86-69.18-12.62-102.09-18.98-30.48-2.51-61.08.52-91.35,4.27-29.14,3.61-58.24,8.03-87.6,9.5-15.14.76-30.29.45-45.42,1.5-15.29,1.06-30.52,2.77-45.77,4.35-30.31,3.15-60.39,5.12-90.79,2.06-31.02-3.13-61.63-9.14-92.47-13.56-17.57-2.19-35.24-3.34-52.88-4.79-17.69-1.46-35.41-2.54-53.15-3.11-34.39-1.09-68.88-.19-103.05,3.96-19.75,2.91-39.08,7.77-58.79,10.87-23.2,3.65-46.52,5.79-69.99,6.27-29.2.6-58.38-.81-87.57-1.74v195.05h1920V23.4c-25-7.77-49.19-18.3-75.09-22.76Z"/>
  </g>
</svg>