<?xml version="1.0" encoding="UTF-8"?>
<svg id="Layer_2" data-name="Layer 2" xmlns="http://www.w3.org/2000/svg" viewBox="0 0 282.8 263.89">
  <defs>
    <style>
      .cls-1, .cls-2, .cls-3, .cls-4 {
        stroke-width: 0px;
      }

      .cls-2 {
        fill: #ccc;
      }

      .cls-3 {
        fill: #c1272d;
      }

      .cls-4 {
        fill: #f7931e;
      }
    </style>
  </defs>
  <g id="Layer_1-2" data-name="Layer 1">
    <g>
      <g>
        <g>
          <path class="cls-1" d="m280.55,65.55c-3.22-2.56-6.24-5.36-8.94-8.52-9.36-10.96-12.34-24.68-12.22-38.79,0-.48.07-.91.17-1.3-.84-4.04-1.98-8-4.19-11.4-.31-.48-.53-.96-.67-1.44l-6.52-4.1L76.16,261.23c1.03.12,2.06.23,3.09.36,1.23.15,2.22.66,2.98,1.36,5.8.55,11.63.77,17.44.89,11.61.23,23.05-.25,34.59-1.62,9.9-1.18,19.78-2.49,29.71-2.62l107.54-163.3c-.25-.82-.23-1.73.17-2.7.17-.4.34-.79.52-1.19,0,0,0,0-.01,0,.03-.06.07-.13.1-.19,2.86-6.56,6.38-12.72,10.06-18.86.12-.19.24-.37.37-.54.39-2.73-.48-5.05-2.16-7.26Z"/>
          <path class="cls-3" d="m279.38,64.15l-129.82,196.31c5.78-.57,11.56-.94,17.36-.87l105.74-159.89c-.07-.52-.07-1.05,0-1.57-1.15-1.14-1.72-2.75-.97-4.54.17-.4.34-.79.52-1.19,0,0,0,0-.01,0,.03-.06.07-.13.1-.19,2.86-6.56,6.38-12.72,10.06-18.86.12-.19.24-.37.37-.54.48-3.31-.91-6.01-3.33-8.66Z"/>
        </g>
        <path class="cls-2" d="m216.94,18.96c-.37.05-.75.08-1.18.04-1.61-.14-3.21-.16-4.8-.12-5.91,2.16-12.25,3.48-18.25,5.07-.24.3-.52.58-.87.85-7.13,5.55-12.31,13.61-21.59,15.82-1.48.35-2.74.07-3.74-.56-2.53,1.21-5.16,2.13-7.75,3.17l-15.7,24.04c.52,1.22.47,2.68-.51,4.17-6.28,9.54-11.07,20.05-17.9,29.23-.76,1.02-1.54,2-2.34,2.95-2.81,7.43-8.75,13.67-12.87,20.32-1.22,1.96-3.11,2.56-4.88,2.29l-32.13,49.2c.54,1.24.6,2.71-.13,4.23-8.46,17.54-19.28,33.77-29.88,50.07-.84,1.28-1.96,1.97-3.15,2.21-5.16,8.56-10.57,16.97-15.03,25.91,3.23.34,6.38.76,9.1.78,14.41.13,28.78,1.01,43.09,2.66L229.37,27.07l-12.43-8.12Z"/>
        <rect class="cls-4" x="88.57" y="63.34" width="51" height="20.31" transform="translate(60.58 -51.21) rotate(33.99)"/>
        <rect class="cls-4" x="40.6" y="130.01" width="51" height="20.31" transform="translate(89.65 -13.01) rotate(33.99)"/>
        <rect class="cls-4" x="2.6" y="197.01" width="51" height="20.31" transform="translate(120.62 19.68) rotate(33.99)"/>
        <rect class="cls-1" x="86.84" y="49.42" width="13.09" height="20.31" transform="translate(49.26 -42.03) rotate(33.99)"/>
        <rect class="cls-1" x="35.56" y="114.01" width="13.09" height="20.31" transform="translate(76.61 -2.32) rotate(33.99)"/>
        <rect class="cls-1" x="4.56" y="186.01" width="13.09" height="20.31" transform="translate(111.56 27.31) rotate(33.99)"/>
      </g>
      <g>
        <g>
          <rect class="cls-1" x="167.36" y="82.94" width="2.56" height="1.44" transform="translate(332.28 -9.4) rotate(123.99)"/>
          <rect class="cls-1" x="163.61" y="88.49" width="2.56" height="1.44" transform="translate(331.04 2.36) rotate(123.99)"/>
          <g>
            <rect class="cls-1" x="164.38" y="80.93" width="2.56" height="1.44" transform="translate(325.96 -10.07) rotate(123.99)"/>
            <rect class="cls-1" x="160.63" y="86.48" width="2.56" height="1.44" transform="translate(324.73 1.7) rotate(123.99)"/>
          </g>
        </g>
        <g>
          <rect class="cls-1" x="161.21" y="78.8" width="2.56" height="1.44" transform="translate(319.27 -10.77) rotate(123.99)"/>
          <rect class="cls-1" x="157.47" y="84.35" width="2.56" height="1.44" transform="translate(318.03 1) rotate(123.99)"/>
          <g>
            <rect class="cls-1" x="158.23" y="76.78" width="2.56" height="1.44" transform="translate(312.95 -11.43) rotate(123.99)"/>
            <rect class="cls-1" x="154.49" y="82.34" width="2.56" height="1.44" transform="translate(311.72 .33) rotate(123.99)"/>
          </g>
        </g>
      </g>
      <g>
        <g>
          <rect class="cls-1" x="159.65" y="95.14" width="2.56" height="1.44" transform="translate(330.38 16.01) rotate(123.99)"/>
          <rect class="cls-1" x="155.91" y="100.69" width="2.56" height="1.44" transform="translate(329.15 27.77) rotate(123.99)"/>
          <g>
            <rect class="cls-1" x="156.67" y="93.13" width="2.56" height="1.44" transform="translate(324.07 15.35) rotate(123.99)"/>
            <rect class="cls-1" x="152.92" y="98.68" width="2.56" height="1.44" transform="translate(322.83 27.11) rotate(123.99)"/>
          </g>
        </g>
        <g>
          <rect class="cls-1" x="153.51" y="91" width="2.56" height="1.44" transform="translate(317.37 14.65) rotate(123.99)"/>
          <rect class="cls-1" x="149.76" y="96.55" width="2.56" height="1.44" transform="translate(316.14 26.41) rotate(123.99)"/>
          <g>
            <rect class="cls-1" x="150.53" y="88.99" width="2.56" height="1.44" transform="translate(311.06 13.99) rotate(123.99)"/>
            <rect class="cls-1" x="146.78" y="94.54" width="2.56" height="1.44" transform="translate(309.82 25.75) rotate(123.99)"/>
          </g>
        </g>
      </g>
      <g>
        <g>
          <rect class="cls-1" x="151.65" y="106.14" width="2.56" height="1.44" transform="translate(327.03 39.79) rotate(123.99)"/>
          <rect class="cls-1" x="147.91" y="111.69" width="2.56" height="1.44" transform="translate(325.8 51.56) rotate(123.99)"/>
          <g>
            <rect class="cls-1" x="148.67" y="104.13" width="2.56" height="1.44" transform="translate(320.71 39.13) rotate(123.99)"/>
            <rect class="cls-1" x="144.92" y="109.68" width="2.56" height="1.44" transform="translate(319.48 50.9) rotate(123.99)"/>
          </g>
        </g>
        <g>
          <rect class="cls-1" x="145.51" y="102" width="2.56" height="1.44" transform="translate(314.02 38.43) rotate(123.99)"/>
          <rect class="cls-1" x="141.76" y="107.55" width="2.56" height="1.44" transform="translate(312.79 50.19) rotate(123.99)"/>
          <g>
            <rect class="cls-1" x="142.53" y="99.99" width="2.56" height="1.44" transform="translate(307.7 37.77) rotate(123.99)"/>
            <rect class="cls-1" x="138.78" y="105.54" width="2.56" height="1.44" transform="translate(306.47 49.53) rotate(123.99)"/>
          </g>
        </g>
      </g>
      <g>
        <g>
          <rect class="cls-1" x="120.49" y="148.77" width="2.56" height="1.44" transform="translate(313.8 132.08) rotate(123.99)"/>
          <rect class="cls-1" x="116.75" y="154.32" width="2.56" height="1.44" transform="translate(312.56 143.84) rotate(123.99)"/>
          <g>
            <rect class="cls-1" x="117.51" y="146.75" width="2.56" height="1.44" transform="translate(307.48 131.42) rotate(123.99)"/>
            <rect class="cls-1" x="113.77" y="152.31" width="2.56" height="1.44" transform="translate(306.25 143.18) rotate(123.99)"/>
          </g>
        </g>
        <g>
          <rect class="cls-1" x="114.35" y="144.62" width="2.56" height="1.44" transform="translate(300.79 130.72) rotate(123.99)"/>
          <rect class="cls-1" x="110.61" y="150.18" width="2.56" height="1.44" transform="translate(299.56 142.48) rotate(123.99)"/>
          <g>
            <rect class="cls-1" x="111.37" y="142.61" width="2.56" height="1.44" transform="translate(294.47 130.06) rotate(123.99)"/>
            <rect class="cls-1" x="107.63" y="148.17" width="2.56" height="1.44" transform="translate(293.24 141.82) rotate(123.99)"/>
          </g>
        </g>
      </g>
      <g>
        <g>
          <rect class="cls-1" x="112.49" y="159.77" width="2.56" height="1.44" transform="translate(310.45 155.86) rotate(123.99)"/>
          <rect class="cls-1" x="108.75" y="165.32" width="2.56" height="1.44" transform="translate(309.21 167.63) rotate(123.99)"/>
          <g>
            <rect class="cls-1" x="109.51" y="157.75" width="2.56" height="1.44" transform="translate(304.13 155.2) rotate(123.99)"/>
            <rect class="cls-1" x="105.77" y="163.31" width="2.56" height="1.44" transform="translate(302.9 166.96) rotate(123.99)"/>
          </g>
        </g>
        <g>
          <rect class="cls-1" x="106.35" y="155.62" width="2.56" height="1.44" transform="translate(297.44 154.5) rotate(123.99)"/>
          <rect class="cls-1" x="102.61" y="161.18" width="2.56" height="1.44" transform="translate(296.2 166.26) rotate(123.99)"/>
          <g>
            <rect class="cls-1" x="103.37" y="153.61" width="2.56" height="1.44" transform="translate(291.12 153.84) rotate(123.99)"/>
            <rect class="cls-1" x="99.63" y="159.17" width="2.56" height="1.44" transform="translate(289.89 165.6) rotate(123.99)"/>
          </g>
        </g>
      </g>
      <g>
        <g>
          <rect class="cls-1" x="104.49" y="170.77" width="2.56" height="1.44" transform="translate(307.09 179.65) rotate(123.99)"/>
          <rect class="cls-1" x="100.75" y="176.32" width="2.56" height="1.44" transform="translate(305.86 191.41) rotate(123.99)"/>
          <g>
            <rect class="cls-1" x="101.51" y="168.75" width="2.56" height="1.44" transform="translate(300.78 178.98) rotate(123.99)"/>
            <rect class="cls-1" x="97.77" y="174.31" width="2.56" height="1.44" transform="translate(299.55 190.75) rotate(123.99)"/>
          </g>
        </g>
        <g>
          <rect class="cls-1" x="98.35" y="166.62" width="2.56" height="1.44" transform="translate(294.08 178.28) rotate(123.99)"/>
          <rect class="cls-1" x="94.61" y="172.18" width="2.56" height="1.44" transform="translate(292.85 190.05) rotate(123.99)"/>
          <g>
            <rect class="cls-1" x="95.37" y="164.61" width="2.56" height="1.44" transform="translate(287.77 177.62) rotate(123.99)"/>
            <rect class="cls-1" x="91.63" y="170.17" width="2.56" height="1.44" transform="translate(286.54 189.38) rotate(123.99)"/>
          </g>
        </g>
      </g>
      <g>
        <g>
          <rect class="cls-1" x="96.49" y="181.77" width="2.56" height="1.44" transform="translate(303.74 203.43) rotate(123.99)"/>
          <rect class="cls-1" x="92.75" y="187.32" width="2.56" height="1.44" transform="translate(302.51 215.19) rotate(123.99)"/>
          <g>
            <rect class="cls-1" x="93.51" y="179.75" width="2.56" height="1.44" transform="translate(297.43 202.77) rotate(123.99)"/>
            <rect class="cls-1" x="89.77" y="185.31" width="2.56" height="1.44" transform="translate(296.19 214.53) rotate(123.99)"/>
          </g>
        </g>
        <g>
          <rect class="cls-1" x="90.35" y="177.62" width="2.56" height="1.44" transform="translate(290.73 202.06) rotate(123.99)"/>
          <rect class="cls-1" x="86.61" y="183.18" width="2.56" height="1.44" transform="translate(289.5 213.83) rotate(123.99)"/>
          <g>
            <rect class="cls-1" x="87.37" y="175.61" width="2.56" height="1.44" transform="translate(284.42 201.4) rotate(123.99)"/>
            <rect class="cls-1" x="83.63" y="181.17" width="2.56" height="1.44" transform="translate(283.18 213.17) rotate(123.99)"/>
          </g>
        </g>
      </g>
      <g>
        <g>
          <rect class="cls-1" x="62.86" y="242.29" width="2.56" height="1.44" transform="translate(301.48 325.68) rotate(123.99)"/>
          <rect class="cls-1" x="59.11" y="247.85" width="2.56" height="1.44" transform="translate(300.25 337.45) rotate(123.99)"/>
          <g>
            <rect class="cls-1" x="59.87" y="240.28" width="2.56" height="1.44" transform="translate(295.17 325.02) rotate(123.99)"/>
            <rect class="cls-1" x="56.13" y="245.84" width="2.56" height="1.44" transform="translate(293.94 336.78) rotate(123.99)"/>
          </g>
        </g>
        <g>
          <rect class="cls-1" x="56.71" y="238.15" width="2.56" height="1.44" transform="translate(288.47 324.32) rotate(123.99)"/>
          <rect class="cls-1" x="52.97" y="243.7" width="2.56" height="1.44" transform="translate(287.24 336.08) rotate(123.99)"/>
          <g>
            <rect class="cls-1" x="53.73" y="236.14" width="2.56" height="1.44" transform="translate(282.16 323.66) rotate(123.99)"/>
            <rect class="cls-1" x="49.99" y="241.69" width="2.56" height="1.44" transform="translate(280.93 335.42) rotate(123.99)"/>
          </g>
        </g>
      </g>
    </g>
  </g>
</svg>