<?xml version="1.0" standalone="no"?><svg xmlns="http://www.w3.org/2000/svg" viewBox="0 0 1440 320"><path fill="#a2d9ff" fill-opacity="1" d="M0,256L34.3,234.7C68.6,213,137,171,206,160C274.3,149,343,171,411,192C480,213,549,235,617,250.7C685.7,267,754,277,823,277.3C891.4,277,960,267,1029,229.3C1097.1,192,1166,128,1234,138.7C1302.9,149,1371,235,1406,277.3L1440,320L1440,320L1405.7,320C1371.4,320,1303,320,1234,320C1165.7,320,1097,320,1029,320C960,320,891,320,823,320C754.3,320,686,320,617,320C548.6,320,480,320,411,320C342.9,320,274,320,206,320C137.1,320,69,320,34,320L0,320Z"></path></svg>